<svg id="Layer_1" data-name="Layer 1" xmlns="http://www.w3.org/2000/svg" viewBox="0 0 545 343"><defs><style>.cls-1{fill:#2c4557;}.cls-2{fill:#303e5c;}.cls-14,.cls-3{fill:#e89137;}.cls-4{fill:#94a3aa;}.cls-5{fill:#fff;}.cls-6{fill:#e9bfb3;}.cls-7{fill:#a89996;}.cls-8{fill:#fff2f2;}.cls-11,.cls-9{fill:#ff7886;}.cls-14,.cls-18,.cls-21,.cls-22,.cls-23,.cls-24,.cls-25,.cls-26,.cls-9{stroke:#303e5c;stroke-linejoin:round;}.cls-9{stroke-width:2.02px;}.cls-10{fill:#f2b776;}.cls-12{fill:#fca7ad;}.cls-13,.cls-21{fill:#cb7ea2;}.cls-14,.cls-18{stroke-width:1.8px;}.cls-15{fill:#c48e5f;}.cls-16{fill:#a68d57;}.cls-17,.cls-22{fill:#94bdd1;}.cls-18,.cls-26{fill:#2aa7b6;}.cls-19{fill:#ef7880;}.cls-20,.cls-24{fill:#fec459;}.cls-21,.cls-22,.cls-23,.cls-24,.cls-25,.cls-26{stroke-width:2.07px;}.cls-23{fill:#ff7113;}.cls-25{fill:#9fcd60;}</style></defs><path class="cls-1" d="M495.13,103.72h-6.58V97.14a1.5,1.5,0,0,0-3,0v6.58H479a1.5,1.5,0,0,0,0,3h6.59v6.59a1.5,1.5,0,0,0,3,0v-6.59h6.58a1.5,1.5,0,0,0,0-3Z"/><path class="cls-1" d="M507.16,114.27h-3.79v-3.79a1.48,1.48,0,0,0-2.95,0v3.79h-3.78a1.48,1.48,0,1,0,0,3h3.78V121a1.48,1.48,0,0,0,2.95,0v-3.79h3.79a1.48,1.48,0,0,0,0-3Z"/><path class="cls-1" d="M95.19,109.47H88.61v-6.58a1.5,1.5,0,0,0-3,0v6.58H79a1.5,1.5,0,0,0,0,3h6.58v6.58a1.5,1.5,0,0,0,3,0v-6.58h6.58a1.5,1.5,0,0,0,0-3Z"/><path class="cls-1" d="M107.22,120h-3.78v-3.79a1.48,1.48,0,0,0-3,0V120H96.7a1.48,1.48,0,1,0,0,3h3.78v3.78a1.48,1.48,0,1,0,3,0V123h3.78a1.48,1.48,0,1,0,0-3Z"/><path class="cls-1" d="M275.22,61.25h-3.78V57.46a1.48,1.48,0,0,0-3,0v3.79H264.7a1.48,1.48,0,1,0,0,3h3.78V68a1.48,1.48,0,0,0,3,0V64.2h3.78a1.48,1.48,0,1,0,0-3Z"/><path class="cls-1" d="M407.65,26.71h-3.78V22.93a1.48,1.48,0,0,0-3,0v3.78h-3.78a1.48,1.48,0,1,0,0,2.95h3.78v3.79a1.48,1.48,0,0,0,3,0V29.66h3.78a1.48,1.48,0,1,0,0-2.95Z"/><path class="cls-1" d="M166.8,14.7H163V10.91a1.48,1.48,0,0,0-2.95,0V14.7h-3.78a1.48,1.48,0,1,0,0,2.95h3.78v3.79a1.48,1.48,0,0,0,2.95,0V17.65h3.79a1.48,1.48,0,1,0,0-2.95Z"/><rect class="cls-2" x="36.16" y="329.74" width="493.34" height="5.49"/><path class="cls-3" d="M67.2,322.84s2.4,3,5.56,3.22a2.08,2.08,0,0,0,2.32-1.69l19.48-56.64-20.7-3.57Z"/><path class="cls-2" d="M73,327h-.29c-3.51-.25-6.08-3.43-6.19-3.56a.89.89,0,0,1-.19-.66L73,264.06a.87.87,0,0,1,.35-.61.9.9,0,0,1,.69-.17l20.7,3.56a.91.91,0,0,1,.7,1.18L76,324.6A2.94,2.94,0,0,1,73,327Zm-4.84-4.43a7.89,7.89,0,0,0,4.68,2.63H73a1.13,1.13,0,0,0,1.21-.94c0-.05,0-.1,0-.15l19.14-55.65-18.72-3.22Z"/><path class="cls-4" d="M69.41,323.33A5.58,5.58,0,0,0,64,329.06l11-.14A5.58,5.58,0,0,0,69.41,323.33Z"/><path class="cls-2" d="M64,330.09a1,1,0,0,1-1-1,6.64,6.64,0,0,1,6.46-6.78h0A6.67,6.67,0,0,1,76,328.9a1.07,1.07,0,0,1-.3.74A1,1,0,0,1,75,330l-11,.14Zm5.5-5.73A4.54,4.54,0,0,0,65.11,328l8.72-.11A4.53,4.53,0,0,0,69.48,324.36Z"/><path class="cls-3" d="M118.88,322.84s-2.4,3-5.56,3.22a2.07,2.07,0,0,1-2.32-1.69L91.52,267.73l20.7-3.57Z"/><path class="cls-2" d="M113.09,327a3,3,0,0,1-3-2.37L90.67,268a.86.86,0,0,1,.08-.75.9.9,0,0,1,.62-.43l20.69-3.56a.9.9,0,0,1,1,.78l6.66,58.68a.93.93,0,0,1-.19.66c-.11.13-2.69,3.31-6.2,3.56ZM92.71,268.43l19.14,55.65a.8.8,0,0,1,0,.15,1.21,1.21,0,0,0,1.37.94,7.86,7.86,0,0,0,4.69-2.63l-6.51-57.33Z"/><path class="cls-4" d="M116.67,323.33a5.58,5.58,0,0,1,5.43,5.73l-11-.14A5.58,5.58,0,0,1,116.67,323.33Z"/><path class="cls-2" d="M122.1,330.09h0l-11-.14a1,1,0,0,1-1-1.05,6.54,6.54,0,1,1,13.08.17A1,1,0,0,1,122.1,330.09Zm-9.85-2.19L121,328a4.52,4.52,0,0,0-4.32-3.65h0A4.55,4.55,0,0,0,112.25,327.9Z"/><path class="cls-4" d="M80.43,218.39c2.65,3.12,0,4.75,0,4.75-.73,5.09-9.68,9.92-14.76,23.28-.93,2.42-.36,4.34,1.93,9.2l1.72,4.46s-17.65,7.93-11.56-14C61.53,232.52,80.43,218.39,80.43,218.39Z"/><path class="cls-2" d="M63.05,262.52a7.06,7.06,0,0,1-6-2.6c-2.06-2.71-2.17-7.45-.33-14.09,3.83-13.77,22.27-27.69,23.06-28.27a1,1,0,0,1,1.4.16,4.77,4.77,0,0,1,1.38,3.83,3.69,3.69,0,0,1-1.22,2.17c-.51,2.32-2.38,4.5-4.71,7.22-3.21,3.74-7.21,8.4-10,15.84-.74,2-.39,3.53,1.9,8.4l1.76,4.53a1,1,0,0,1-.54,1.32A18.62,18.62,0,0,1,63.05,262.52Zm17.17-42.66c-3.66,2.9-18.28,15-21.47,26.53-1.63,5.89-1.64,10.14,0,12.28a5.1,5.1,0,0,0,4.31,1.78A15.89,15.89,0,0,0,68,259.5L66.63,256c-2.19-4.66-3-7-1.93-9.95,3-7.78,7.26-12.8,10.4-16.46,2.26-2.63,4-4.7,4.31-6.6a1.06,1.06,0,0,1,.48-.73h0a1.67,1.67,0,0,0,.67-1A2.17,2.17,0,0,0,80.22,219.86Z"/><path class="cls-5" d="M113,269.61a2,2,0,0,0-2.42.93c-.76,1.29.43,1.38,1,1.48,0,0-3.94,4.19-2.52,5.72s8-5.18,7.17-5.93A16.75,16.75,0,0,0,113,269.61Z"/><path class="cls-2" d="M109.72,279h0a1.79,1.79,0,0,1-1.36-.57c-1.47-1.58.12-4.21,1.53-6a1.45,1.45,0,0,1-.41-.53,2,2,0,0,1,.23-1.93,2.85,2.85,0,0,1,2.56-1.53,4.61,4.61,0,0,1,.85.09c1,.17,3.73,2.33,3.87,2.47a1.38,1.38,0,0,1,.25,1.65C116.58,274.37,112.24,279,109.72,279Zm1.84-8.05.13,0,.12,0a1,1,0,0,1,.8.66,1,1,0,0,1-.17,1c-1.76,1.88-2.7,3.72-2.61,4.24,1.3-.18,4.58-3.36,5.35-4.7a17.68,17.68,0,0,0-2.42-1.62c-.13,0-.3-.05-.49-.05A.74.74,0,0,0,111.56,271Z"/><path class="cls-4" d="M108.81,218.39c-3.57.89,2.28,5.36,2.28,5.36.56,1.47,4.47,5.63,3.43,23.68-.76,13.31-1.86,21.53-1.86,21.53l4.23,3.28A60.85,60.85,0,0,0,122.08,247C121.82,223.45,108.81,218.39,108.81,218.39Z"/><path class="cls-2" d="M116.89,273.27a1,1,0,0,1-.63-.22L112,269.78a1,1,0,0,1-.39-1c0-.08,1.1-8.34,1.85-21.45.88-15.41-1.9-20.48-2.94-22.39l-.3-.57c-1.36-1.07-4-3.42-3.58-5.33a2.24,2.24,0,0,1,1.89-1.7,1.13,1.13,0,0,1,.63,0c.55.22,13.66,5.6,13.93,29.59a61.37,61.37,0,0,1-5.3,25.69,1.09,1.09,0,0,1-.69.55Zm-3.13-4.77,2.73,2.11A61.81,61.81,0,0,0,121.05,247c-.23-20.46-10.36-26.56-12.3-27.54l-.09.05c0,.48,1.45,2.15,3,3.38a1,1,0,0,1,.34.45,5.89,5.89,0,0,0,.31.61c1.12,2,4.11,7.5,3.19,23.5C114.91,258.69,114,266.38,113.76,268.5Z"/><rect class="cls-5" x="86" y="210.87" width="16.95" height="12.48"/><path class="cls-2" d="M103,224.33H86a1,1,0,0,1-1-1V210.87a1,1,0,0,1,1-1h17a1,1,0,0,1,1,1v12.49A1,1,0,0,1,103,224.33Zm-16-2h15V211.85H87Z"/><path class="cls-5" d="M122.08,190.57c0,11.91-12.06,21.58-26.94,21.58s-26.95-9.67-26.95-21.58S80.26,169,95.14,169,122.08,178.64,122.08,190.57Z"/><path class="cls-2" d="M95.14,213.18c-15.43,0-28-10.14-28-22.61S79.71,168,95.14,168s28,10.14,28,22.62S110.57,213.18,95.14,213.18Zm0-43.17c-14.29,0-25.91,9.22-25.91,20.56s11.62,20.54,25.91,20.54,25.91-9.21,25.91-20.54S109.43,170,95.14,170Z"/><path class="cls-6" d="M81.11,199.91a2.31,2.31,0,1,1-2.31-2.3A2.3,2.3,0,0,1,81.11,199.91Z"/><path class="cls-6" d="M110,199.91a2.31,2.31,0,1,1-2.3-2.3A2.3,2.3,0,0,1,110,199.91Z"/><path class="cls-4" d="M84.77,217.12c2.81.19,0,6.36,9.26,6.36,8.92,0,8.92-6.36,8.92-6.36,16.78-1.15,10.4,55.09,10.4,55.09l-40,.13S68.19,216,84.77,217.12Z"/><path class="cls-2" d="M73.36,273.37a1,1,0,0,1-1-.94c-.16-1.74-3.79-42.78,6.1-53.62a7.64,7.64,0,0,1,6.41-2.73c1.66.12,2.16,1.48,2.55,2.58.64,1.78,1.37,3.79,6.64,3.79,7.79,0,7.88-5.12,7.88-5.33a1,1,0,0,1,1-1,7.64,7.64,0,0,1,6.47,2.78c9.73,10.89,5.22,51.73,5,53.47a1,1,0,0,1-1,.91l-40,.13Zm10.92-55.24A5.67,5.67,0,0,0,80,220.2c-8.5,9.31-6.14,44.84-5.65,51.1l38.11-.12c.61-6.17,3.75-41.59-4.61-51a5.68,5.68,0,0,0-4-2.08c-.44,2-2.25,6.37-9.82,6.37-6.72,0-7.89-3.23-8.58-5.16-.38-1.05-.5-1.19-.75-1.21Z"/><path class="cls-7" d="M121,170.45c-6.4-7.37-20-11.54-34.32-6.63C87,160.4,90,161.57,90,161.57c-4.62-3.72-13,2.93-13,2.93l.46-6.35C70.18,160.9,73,168.32,73,168.32c-9.24-1.8-9.76,3.75-9.76,3.75,6-1.9,5.52,4.38,4.93,10.05a18.07,18.07,0,0,0,1.74,15.49c-3.49-13.3,7.15-18.94,9.15-20.56a33.6,33.6,0,0,0,14.87,5.25l-5.48-6.71c2.07.37,12.19,9.63,18.62,7.86,0,0-4.71-4.83-2.4-4.51,2.88.41,10.82,6.37,10.82,6.37s-1.63-5.81-.27-4.95c2.27,1.42,6.79,10.24,4.61,18.54,0,0,6.65-6.67.57-18.37,2.74,3.31,4,7.06,2.95,10.85C123.35,191.38,128.25,178.84,121,170.45Z"/><path class="cls-2" d="M119.83,199.81a.92.92,0,0,1-.45-.12.91.91,0,0,1-.43-1c1.82-6.92-1.2-14-3.26-16.6a28.32,28.32,0,0,0,.67,3,.91.91,0,0,1-.36,1,.92.92,0,0,1-1.06,0c-1.91-1.44-6.92-5-9.54-5.95a25.18,25.18,0,0,0,2.32,2.74.9.9,0,0,1,.22.87.87.87,0,0,1-.63.63,7.53,7.53,0,0,1-2,.26c-4.24,0-9.24-3.11-12.86-5.52l2.17,2.67a.9.9,0,0,1-.8,1.47,35.38,35.38,0,0,1-14.75-5l-.38.28c-3.26,2.28-10.88,7.64-7.92,18.94a.9.9,0,0,1-1.62.74,18.82,18.82,0,0,1-1.88-16.2c.31-2.92.73-7.23-.6-8.71-.61-.68-1.65-.75-3.16-.27a.93.93,0,0,1-.85-.16.92.92,0,0,1-.33-.79c0-.05.54-4.93,7.27-4.93a18.42,18.42,0,0,1,2.15.14,9.41,9.41,0,0,1,.51-5.62,8.19,8.19,0,0,1,4.87-4.28.88.88,0,0,1,.86.12.9.9,0,0,1,.37.79L78,162.66c1.95-1.27,5.35-3.13,8.53-3.13a6.22,6.22,0,0,1,4,1.33.91.91,0,0,1,.33.82,38.89,38.89,0,0,1,8.22-.89c9.17,0,17.6,3.39,22.53,9.06,7.56,8.71,2.76,21.33,2.55,21.86a.94.94,0,0,1-.45.49,13.34,13.34,0,0,1-3.28,7.34A.89.89,0,0,1,119.83,199.81ZM115,179.37a1.35,1.35,0,0,1,.73.22c2.13,1.34,5.69,7.92,5.59,15,1-2.92,1.48-7.54-1.7-13.66a.93.93,0,0,1,.3-1.18.91.91,0,0,1,1.2.18,16,16,0,0,1,2.81,4.8c.42-4.13,0-9.51-3.63-13.71-4.59-5.28-12.5-8.44-21.16-8.44a37.4,37.4,0,0,0-12.19,2.08.92.92,0,0,1-1.2-1,4,4,0,0,1,1-2.36h-.14c-4.07,0-9,3.82-9,3.86a.9.9,0,0,1-1.46-.77l.35-4.82a6,6,0,0,0-2.53,2.7,8.33,8.33,0,0,0-.08,5.68.91.91,0,0,1-.15.91.89.89,0,0,1-.87.3,16.8,16.8,0,0,0-3.21-.34c-2.91,0-4.27,1.06-4.91,2A3.76,3.76,0,0,1,68,172c1.74,1.94,1.51,5.78,1,10.22a1.42,1.42,0,0,1,0,.22,16.55,16.55,0,0,0-.68,8.67c.63-8,6.7-12.32,9.31-14.15.35-.24.63-.44.83-.6a.9.9,0,0,1,1.1,0,32.54,32.54,0,0,0,12.16,4.74l-4-4.9a.9.9,0,0,1-.08-1,.89.89,0,0,1,.94-.43c.76.13,1.8.81,3.9,2.22,3.44,2.3,8.64,5.78,12.69,5.85-2.47-2.83-2.12-3.66-2-4a1.23,1.23,0,0,1,1.23-.75l.34,0c2.17.3,6.6,3.23,9.23,5.08-.5-2.58-.1-3.11.06-3.31A1.09,1.09,0,0,1,115,179.37Z"/><path class="cls-2" d="M98.49,200.16a1.08,1.08,0,0,0-1.16,1c0,.44-1.68,1.11-4.22,1.11s-4.22-.67-4.22-1.11a1.17,1.17,0,0,0-2.32,0c0,.62.31,1.77,2.39,2.5a13.37,13.37,0,0,0,4.15.6c3,0,6.55-.81,6.55-3.1A1.08,1.08,0,0,0,98.49,200.16Z"/><path class="cls-2" d="M113.38,169.48c-1.8-1.44-4.12-1.88-6.31-2.45a.55.55,0,0,0-.3,1.05,41.9,41.9,0,0,1,5.92,2.25C113.21,170.59,113.91,169.91,113.38,169.48Z"/><path class="cls-2" d="M106.85,174.77c-3.27-4.37-8-4.59-12.68-6.73-.51-.23-1,.44-.46.76,4.09,2.5,8.72,3.13,12.21,6.65C106.36,175.9,107.26,175.31,106.85,174.77Z"/><path class="cls-2" d="M101.17,177.15a6.55,6.55,0,0,0-5.5-3.45.77.77,0,0,0-.22,1.52c1.68.57,2.85,2,4.11,3.12C100.37,179.09,101.77,178.17,101.17,177.15Z"/><path class="cls-2" d="M77.69,173.11a.13.13,0,0,0,.23-.11,20.22,20.22,0,0,1-.3-2.19s0-.05,0-.08c.08-1.07.68-2.29.42-3.32a.57.57,0,0,0-.83-.32c-1.08.73-1.12,2.44-1.13,3.64a10.32,10.32,0,0,0,1,4.3c.24.53,1.17.16,1-.4A9.18,9.18,0,0,1,77.69,173.11Z"/><path class="cls-2" d="M86.06,190.92a.48.48,0,0,0,.06-.24,1.53,1.53,0,0,0-.5-1.18c-.91-.83-2.77-.65-4.4-.49a10.82,10.82,0,0,1-1.46.08.59.59,0,0,0-.72,0,.61.61,0,0,0-.11.85c.36.45,1,.38,2.4.25l.92-.08a2.88,2.88,0,0,0-.34,1.36,2.14,2.14,0,1,0,4.21,0A2.53,2.53,0,0,0,86.06,190.92Z"/><path class="cls-8" d="M85.17,191.73c0,.5-.26.9-.58.9s-.57-.4-.57-.9.25-.9.57-.9S85.17,191.23,85.17,191.73Z"/><path class="cls-2" d="M102,190.92a.48.48,0,0,1-.06-.24,1.54,1.54,0,0,1,.51-1.18c.91-.83,2.76-.65,4.39-.49a10.82,10.82,0,0,0,1.46.08.6.6,0,0,1,.73,0,.61.61,0,0,1,.1.85c-.36.45-1,.38-2.4.25l-.92-.08a2.88,2.88,0,0,1,.34,1.36,2.14,2.14,0,1,1-4.21,0A2.53,2.53,0,0,1,102,190.92Z"/><path class="cls-8" d="M102.87,191.73c0,.5.26.9.58.9s.58-.4.58-.9-.26-.9-.58-.9S102.87,191.23,102.87,191.73Z"/><path class="cls-5" d="M67.6,255.62c0-.71,0-2,1.55-2.39s1.44,1,1.42,1.71c0,0,5.49-2.94,6.87-.8s-7.45,7.11-8.12,5.94A22.92,22.92,0,0,1,67.6,255.62Z"/><path class="cls-2" d="M69.78,261.29a1.45,1.45,0,0,1-1.36-.7c-.18-.32-1.89-4-1.86-5a3.09,3.09,0,0,1,2.35-3.36,3.36,3.36,0,0,1,.74-.1,1.88,1.88,0,0,1,1.39.55,2,2,0,0,1,.42.7,11.7,11.7,0,0,1,4.18-1,2.94,2.94,0,0,1,2.67,1.25,2.21,2.21,0,0,1,0,2.38C76.94,258.42,71.67,261.29,69.78,261.29Zm0-2.06,0,1v-1Zm-.22-5-.14,0c-.64.15-.75.45-.77,1.33A25.47,25.47,0,0,0,70,259.2a15.13,15.13,0,0,0,5.89-3.53c.65-.69.65-1,.65-1a1.18,1.18,0,0,0-.93-.27,12.38,12.38,0,0,0-4.59,1.45l-.2.08a1,1,0,0,1-1.32-1v-.15C69.54,254.63,69.55,254.38,69.54,254.21Z"/><path class="cls-9" d="M63.54,223.41a7.64,7.64,0,0,1,2.32-5.57,17.05,17.05,0,0,1,3.72-2.77,8.49,8.49,0,0,1,2.61-.88,4.07,4.07,0,0,1,2.42.61,20,20,0,0,1,3.84,3.45L115.08,258a29.19,29.19,0,0,1,2.17,2.57,7.88,7.88,0,0,1,1.06,2.51q.78,2.85-3.79,7.06t-7.21,3.21a7.66,7.66,0,0,1-2.49-1.34,32.2,32.2,0,0,1-2.51-2.51L78.83,244l-.13,1.71c-.6,3.28-1.58,5.55-3,6.82s-3.59,1.77-6.62,1.48S64,253,62.79,251.69s-1.62-3.48-1.31-6.58l2-21.36Z"/><rect class="cls-5" x="193.13" y="210.87" width="16.94" height="12.48"/><path class="cls-2" d="M210.08,224.33h-17a1,1,0,0,1-1-1V210.87a1,1,0,0,1,1-1h17a1,1,0,0,1,1,1v12.49A1,1,0,0,1,210.08,224.33Zm-16-2h15V211.85h-15Z"/><path class="cls-5" d="M228.85,189.55c0,11.92-12.07,21.59-26.95,21.59S175,201.47,175,189.55,187,168,201.9,168,228.85,177.63,228.85,189.55Z"/><path class="cls-2" d="M201.9,212.17c-15.43,0-28-10.15-28-22.62s12.55-22.62,28-22.62,28,10.15,28,22.62S217.33,212.17,201.9,212.17Zm0-43.17c-14.29,0-25.91,9.22-25.91,20.55s11.62,20.55,25.91,20.55,25.91-9.22,25.91-20.55S216.19,169,201.9,169Z"/><path class="cls-6" d="M187.87,198.89a2.3,2.3,0,1,1-2.3-2.3A2.3,2.3,0,0,1,187.87,198.89Z"/><path class="cls-6" d="M216.75,198.89a2.3,2.3,0,1,1-2.3-2.3A2.3,2.3,0,0,1,216.75,198.89Z"/><path class="cls-10" d="M175.92,187.5a147.86,147.86,0,0,0,26.48-11.21l25.83,10.38s0-8.1-4.51-13c-8.17-8.81-25.9-12.54-38.63-3C173.36,179.55,175.92,187.5,175.92,187.5Z"/><path class="cls-2" d="M175.92,188.54a1,1,0,0,1-1-.72c-.12-.35-2.65-8.76,9.53-17.92a29.48,29.48,0,0,1,17.91-5.85c8.52,0,17,3.42,22.1,8.93,4.76,5.12,4.78,13.35,4.78,13.7a1,1,0,0,1-1.42.95l-25.37-10.19a150.55,150.55,0,0,1-26.26,11.06A1,1,0,0,1,175.92,188.54Zm26.46-22.42a27.5,27.5,0,0,0-16.67,5.43c-8.64,6.5-9.17,12.33-9,14.62a148.9,148.9,0,0,0,25.17-10.78,1.07,1.07,0,0,1,.89-.06l24.31,9.78c-.24-2.5-1.09-7.45-4.13-10.73C218.24,169.28,210.35,166.12,202.38,166.12Z"/><path class="cls-11" d="M228.76,192.33c-.12,1,.87,2,2.21,2.14h0a2.2,2.2,0,0,0,2.64-1.57l.83-7c.12-1-.86-2-2.21-2.14h0a2.21,2.21,0,0,0-2.64,1.57Z"/><path class="cls-2" d="M231.34,195.5h0a2.74,2.74,0,0,1-.49,0,3.85,3.85,0,0,1-2.24-1,2.66,2.66,0,0,1-.85-2.24l.83-7a3.19,3.19,0,0,1,3.76-2.46,3.89,3.89,0,0,1,2.24,1,2.7,2.7,0,0,1,.86,2.24l-.84,7A3.06,3.06,0,0,1,231.34,195.5Zm.52-10.79c-.73,0-1.22.36-1.26.69l-.84,7a.72.72,0,0,0,.26.55,1.82,1.82,0,0,0,1.07.47c.84.1,1.47-.31,1.52-.68l.83-7a.69.69,0,0,0-.26-.55,1.82,1.82,0,0,0-1.06-.47Z"/><path class="cls-2" d="M193.88,191.6a.93.93,0,0,1-.86-1c0-.45-1.24-1.12-3.11-1.12s-3.11.67-3.11,1.12a.86.86,0,1,1-1.71,0,2.71,2.71,0,0,1,1.77-2.5,7.27,7.27,0,0,1,3-.61c2.23,0,4.83.82,4.83,3.11A.93.93,0,0,1,193.88,191.6Z"/><path class="cls-2" d="M216.11,191.6a.93.93,0,0,1-.86-1c0-.45-1.23-1.12-3.1-1.12s-3.11.67-3.11,1.12a.86.86,0,1,1-1.71,0,2.7,2.7,0,0,1,1.76-2.5,7.32,7.32,0,0,1,3.06-.61c2.22,0,4.82.82,4.82,3.11A.93.93,0,0,1,216.11,191.6Z"/><path class="cls-2" d="M206.71,199.15a1.08,1.08,0,0,0-1.16,1c0,.45-1.68,1.12-4.22,1.12s-4.22-.67-4.22-1.12a1.17,1.17,0,0,0-2.32,0c0,.63.31,1.78,2.4,2.51a13.26,13.26,0,0,0,4.14.6c3,0,6.55-.82,6.55-3.11A1.08,1.08,0,0,0,206.71,199.15Z"/><path class="cls-10" d="M234.44,185.86S243,183,245.18,192c3.78,15.3-13.71,22.88-13.71,22.88s17.24-10.56,2.14-22C232.2,191.83,234.44,185.86,234.44,185.86Z"/><path class="cls-2" d="M231.47,215.93a1,1,0,0,1-.91-.55,1,1,0,0,1,.37-1.36c.08-.05,7.54-4.71,7.84-10.81.15-3.27-1.79-6.46-5.78-9.48-1.77-1.34-.46-5.73.48-8.24a1,1,0,0,1,.65-.61,11.18,11.18,0,0,1,3.28-.48c2.6,0,7.2,1,8.79,7.37,3.94,16-14.12,24-14.31,24.08A1.15,1.15,0,0,1,231.47,215.93Zm3.76-29.21c-.84,2.39-1.29,4.89-.95,5.4,4.53,3.42,6.75,7.2,6.55,11.2a11.38,11.38,0,0,1-1.38,4.77c3.52-3.6,6.45-8.86,4.73-15.82-1-3.85-3.23-5.8-6.78-5.8A9.7,9.7,0,0,0,235.23,186.72Z"/><path class="cls-11" d="M174.61,192.33c.12,1-.86,2-2.2,2.14h0a2.21,2.21,0,0,1-2.65-1.57l-.83-7c-.12-1,.87-2,2.21-2.14h0a2.2,2.2,0,0,1,2.64,1.57Z"/><path class="cls-2" d="M172,195.5a3.07,3.07,0,0,1-3.27-2.48l-.83-7c-.19-1.61,1.17-3,3.09-3.27s3.58.88,3.77,2.46l.83,7a2.7,2.7,0,0,1-.86,2.24,3.89,3.89,0,0,1-2.23,1A4.26,4.26,0,0,1,172,195.5Zm-.51-10.79h-.26c-.81.1-1.37.62-1.32,1l.83,7c0,.38.68.78,1.52.69a1.82,1.82,0,0,0,1.06-.47.69.69,0,0,0,.26-.55l-.83-7C172.74,185.07,172.25,184.71,171.52,184.71Z"/><path class="cls-10" d="M168.93,185.86S160.41,183,158.19,192c-3.78,15.3,13.71,22.88,13.71,22.88s-17.23-10.56-2.14-22C171.18,191.83,168.93,185.86,168.93,185.86Z"/><path class="cls-2" d="M171.9,215.93a1.15,1.15,0,0,1-.41-.08c-.18-.08-18.24-8.11-14.3-24.08,1.58-6.41,6.19-7.37,8.79-7.37a11.26,11.26,0,0,1,3.28.48,1,1,0,0,1,.64.61c.94,2.51,2.25,6.9.49,8.24-4,3-5.94,6.22-5.78,9.49.3,6.11,7.76,10.75,7.83,10.8a1,1,0,0,1,.38,1.35A1,1,0,0,1,171.9,215.93ZM166,186.47c-3.55,0-5.83,1.95-6.79,5.8-1.42,5.76.15,11,4.67,15.69a11.42,11.42,0,0,1-1.32-4.64c-.19-4,2-7.78,6.6-11.24.3-.48-.16-3-1-5.36A9.6,9.6,0,0,0,166,186.47Z"/><path class="cls-2" d="M202.91,165.62a.35.35,0,0,0-.64.26c.64,3.25-.77,7-1.83,10-.44,1.26,1.58,1.73,2,.54C203.84,172.83,205.11,169.17,202.91,165.62Z"/><path class="cls-2" d="M218.26,177.54c-2-3.63-6.6-4.71-10.46-4.8a.25.25,0,0,0-.07.5c3.63,1.16,6.37,3.23,9.49,5.28A.74.74,0,0,0,218.26,177.54Z"/><path class="cls-2" d="M216.35,171.66c-2.14-1.91-5.72-2-8.4-2.62-.67-.14-1,.85-.29,1a73.48,73.48,0,0,1,8.43,2.06A.26.26,0,0,0,216.35,171.66Z"/><path class="cls-2" d="M196.55,175c-3.58,0-8.25,1.11-11.13,3.33-.58.45.11,1.1.63,1a32.58,32.58,0,0,0,5-1.49c1.9-.58,3.82-1.05,5.7-1.71A.59.59,0,0,0,196.55,175Z"/><path class="cls-2" d="M197.29,170.69a13.23,13.23,0,0,0-10,2.9c-.4.31.12.75.49.61a45,45,0,0,1,9.47-2.36A.59.59,0,0,0,197.29,170.69Z"/><path class="cls-2" d="M164.57,190.28c-2.14,1.1-2.87,3.83-3,6.08a1.29,1.29,0,0,0,2.37.61c.87-1.72,1-3.68,2.14-5.28C166.71,190.74,165.43,189.83,164.57,190.28Z"/><path class="cls-12" d="M174.33,322.84s2.4,3,5.56,3.22a2.08,2.08,0,0,0,2.32-1.69l19.48-56.64L181,264.16Z"/><path class="cls-2" d="M180.11,327h-.29c-3.51-.25-6.08-3.43-6.19-3.56a.89.89,0,0,1-.19-.66l6.66-58.68a.84.84,0,0,1,.35-.61.9.9,0,0,1,.69-.17l20.7,3.56a.9.9,0,0,1,.62.43.94.94,0,0,1,.08.75L183.08,324.6A2.94,2.94,0,0,1,180.11,327Zm-4.84-4.43a7.89,7.89,0,0,0,4.68,2.63h.16a1.13,1.13,0,0,0,1.21-.94.83.83,0,0,1,0-.15l19.13-55.65-18.71-3.22Z"/><path class="cls-7" d="M176.54,323.33a5.58,5.58,0,0,0-5.43,5.73l11-.14A5.58,5.58,0,0,0,176.54,323.33Z"/><path class="cls-2" d="M171.11,330a.89.89,0,0,1-.89-.88,6.48,6.48,0,0,1,6.31-6.63h0A6.52,6.52,0,0,1,183,328.9a.89.89,0,0,1-.88.9l-11,.14Zm5.5-5.74a4.7,4.7,0,0,0-4.55,4l9.08-.12A4.69,4.69,0,0,0,176.61,324.21Z"/><path class="cls-12" d="M226,322.84s-2.4,3-5.55,3.22a2.07,2.07,0,0,1-2.32-1.69l-19.48-56.64,20.7-3.57Z"/><path class="cls-2" d="M220.22,327a3,3,0,0,1-3-2.37L197.8,268a.9.9,0,0,1,.07-.75.94.94,0,0,1,.63-.43l20.69-3.56a.92.92,0,0,1,1.05.78l6.66,58.68a.94.94,0,0,1-.2.66c-.1.13-2.68,3.31-6.19,3.56Zm-20.38-58.54L219,324.08l0,.15a1.2,1.2,0,0,0,1.37.94,7.89,7.89,0,0,0,4.69-2.63l-6.51-57.33Z"/><path class="cls-7" d="M223.8,323.33a5.58,5.58,0,0,1,5.43,5.73l-11-.14A5.59,5.59,0,0,1,223.8,323.33Z"/><path class="cls-2" d="M229.23,330h0l-11-.14a.86.86,0,0,1-.62-.27.81.81,0,0,1-.25-.63,6.49,6.49,0,0,1,6.4-6.46,6.3,6.3,0,0,1,4.58,2,6.53,6.53,0,0,1,1.8,4.64A.88.88,0,0,1,229.23,330Zm-10-1.91,9.08.12a4.65,4.65,0,0,0-1.25-2.51,4.53,4.53,0,0,0-3.24-1.44h0A4.71,4.71,0,0,0,219.19,328Z"/><path class="cls-5" d="M169.94,161.13a2.48,2.48,0,0,0,1.65-2.72c-.23-1.81-1.45-1-2.12-.65,0,0,.7-7-1.82-7.43s-3.86,11-2.52,11.11A20.9,20.9,0,0,0,169.94,161.13Z"/><path class="cls-2" d="M165.94,162.5c-.41,0-.73,0-.91,0-1.45-.14-1.55-2.15-1.45-4.08,0-.09.49-9.1,3.93-9.1a1.77,1.77,0,0,1,.32,0c2.5.42,2.85,4.24,2.77,6.93h.14c.48,0,1.64.2,1.88,2A3.43,3.43,0,0,1,170.5,162C169.62,162.47,166.54,162.5,165.94,162.5Zm-.25-2.07h.25a20.5,20.5,0,0,0,3.57-.24c.74-.4,1.18-.71,1.05-1.64a.9.9,0,0,0,0-.18l-.44.23-.14.07a1,1,0,0,1-1.52-.85v-.16c.32-3.45-.24-6.17-.95-6.31a4.77,4.77,0,0,0-.79,1.48A19.91,19.91,0,0,0,165.69,160.43Z"/><path class="cls-13" d="M180.84,230a90.3,90.3,0,0,0,5.88-8.88c-.51-5.73-10.41-18.83-14.52-34-4.26-15.76-1.43-25.61-1.43-25.61l-6.55,0s-5,13-.19,29.94C169.67,211.23,180.84,230,180.84,230Z"/><path class="cls-2" d="M180.84,231h-.07a1,1,0,0,1-.82-.5c-.11-.19-11.3-19.12-16.91-38.84-4.86-17.11,0-30.05.22-30.59a1,1,0,0,1,1-.66h0l6.56,0a1,1,0,0,1,.82.41,1.05,1.05,0,0,1,.17.91c0,.09-2.7,9.8,1.43,25.05,2.24,8.3,6.26,16,9.49,22.21,2.69,5.15,4.82,9.23,5.06,12a1,1,0,0,1-.13.61,89.25,89.25,0,0,1-6,9A1,1,0,0,1,180.84,231ZM165,162.51a51.42,51.42,0,0,0,.07,28.61c4.68,16.46,13.31,32.39,15.93,37,2.06-2.82,4.1-6.23,4.7-7.24-.36-2.4-2.43-6.36-4.8-10.91-3.28-6.28-7.35-14.1-9.66-22.62-3.44-12.74-2.35-21.63-1.72-24.85Z"/><path class="cls-5" d="M231.4,161.13a2.48,2.48,0,0,1-1.65-2.72c.23-1.81,1.45-1,2.12-.65,0,0-.7-7,1.82-7.43s3.86,11,2.52,11.11A20.9,20.9,0,0,1,231.4,161.13Z"/><path class="cls-2" d="M235.4,162.5c-.6,0-3.68,0-4.49-.46a3.5,3.5,0,0,1-2.19-3.76c.24-1.84,1.4-2,1.88-2h.14c-.08-2.69.27-6.51,2.78-6.93a1.62,1.62,0,0,1,.31,0c3.44,0,3.93,9,3.93,9.1.1,1.93,0,3.94-1.45,4.08C236.13,162.49,235.81,162.5,235.4,162.5Zm-4.6-4.13a.88.88,0,0,0,0,.17c-.13.94.31,1.25,1,1.64a19.41,19.41,0,0,0,3.58.25h.25a19.91,19.91,0,0,0-1-7.6c-.48-1.29-.86-1.48-.86-1.49-.71.14-1.17,3.15-.88,6.32v.16a1,1,0,0,1-1.52.85l-.14-.07A4.31,4.31,0,0,0,230.8,158.37Z"/><path class="cls-13" d="M220.5,230a90.3,90.3,0,0,1-5.88-8.88c.51-5.73,10.41-18.83,14.52-34,4.26-15.76,1.43-25.61,1.43-25.61l6.55,0s5,13,.19,29.94C231.67,211.23,220.5,230,220.5,230Z"/><path class="cls-2" d="M220.5,231a1,1,0,0,1-.81-.4,89.25,89.25,0,0,1-6-9,1,1,0,0,1-.13-.61c.24-2.76,2.37-6.84,5.06-12,3.23-6.2,7.25-13.91,9.49-22.21,4.13-15.25,1.46-25,1.43-25.05a1.05,1.05,0,0,1,.17-.91,1,1,0,0,1,.82-.41l6.56,0h0a1,1,0,0,1,1,.66c.2.54,5.07,13.48.21,30.59-5.61,19.72-16.8,38.65-16.91,38.84a1,1,0,0,1-.82.5Zm-4.82-10.14c.6,1,2.64,4.42,4.7,7.24,2.62-4.63,11.25-20.56,15.93-37a51.42,51.42,0,0,0,.07-28.61h-4.52c.63,3.22,1.73,12.11-1.72,24.85-2.31,8.52-6.38,16.34-9.66,22.62C218.11,214.54,216,218.5,215.68,220.9Z"/><path class="cls-13" d="M191.9,217.12c2.8.19,0,6.36,9.26,6.36,8.92,0,8.92-6.36,8.92-6.36,16.78-1.15,10.4,55.09,10.4,55.09l-40,.13S175.32,216,191.9,217.12Z"/><path class="cls-2" d="M180.49,273.37a1,1,0,0,1-1-.94c-.16-1.74-3.79-42.78,6.1-53.62a7.64,7.64,0,0,1,6.41-2.73c1.66.12,2.15,1.48,2.55,2.58.64,1.78,1.37,3.79,6.64,3.79,7.79,0,7.88-5.12,7.88-5.33a1,1,0,0,1,1-1,7.65,7.65,0,0,1,6.47,2.78c9.73,10.89,5.22,51.73,5,53.47a1,1,0,0,1-1,.91l-40,.13Zm10.92-55.24a5.69,5.69,0,0,0-4.33,2.07c-8.49,9.31-6.13,44.84-5.64,51.1l38.11-.12c.61-6.17,3.75-41.59-4.61-51a5.68,5.68,0,0,0-4-2.08c-.44,2-2.25,6.37-9.82,6.37-6.73,0-7.89-3.23-8.59-5.16-.38-1.05-.49-1.19-.74-1.21Z"/><path class="cls-14" d="M221.62,142.16c2.91,0,5,.28,6.23.94a5,5,0,0,1,2.53,3.05,18.7,18.7,0,0,1,.7,5.41,16.72,16.72,0,0,1-.63,5.37,4.39,4.39,0,0,1-2.25,2.79,13.88,13.88,0,0,1-6.57,1.35l-41.55.48a8.83,8.83,0,0,1-6.62-2.79,9.4,9.4,0,0,1-2.84-6.67,16.26,16.26,0,0,1,3.86-10.61,38.16,38.16,0,0,1,9.52-8.4q5.59-3.53,11.19-6.93a43.77,43.77,0,0,0,9.53-7.71,13.06,13.06,0,0,0,3.88-9.08,7.89,7.89,0,0,0-.77-2.7,12.18,12.18,0,0,0-1.68-2.85,8.74,8.74,0,0,0-2.84-2,12.11,12.11,0,0,0-5.33-.89,8.06,8.06,0,0,0-5.87,2.56,8.88,8.88,0,0,0-2.76,5l-.39,2.45v.64a29.78,29.78,0,0,1-.11,3.51,7.77,7.77,0,0,1-1,2.67q-1.58,2.56-8.26,2.64-7.44.09-8.87-3.93a20.32,20.32,0,0,1-.59-5.42,28.84,28.84,0,0,1,7.69-19.91q7.82-8.85,20.62-9t20.87,8.64a29.4,29.4,0,0,1,8.2,20.15,25.67,25.67,0,0,1-2.52,11.5,27.72,27.72,0,0,1-6.28,8.79q-7.78,7.1-13.91,9.62l-2.65,1.09v.53Z"/><rect class="cls-5" x="320.5" y="210.87" width="16.94" height="12.48"/><path class="cls-2" d="M337.45,224.33H320.5a1,1,0,0,1-1-1V210.87a1,1,0,0,1,1-1h16.95a1,1,0,0,1,1,1v12.49A1,1,0,0,1,337.45,224.33Zm-16-2h15V211.85h-15Z"/><path class="cls-5" d="M355.08,193c0,11.92-12.06,21.58-26.94,21.58s-26.95-9.66-26.95-21.58,12.06-21.59,26.95-21.59S355.08,181.08,355.08,193Z"/><path class="cls-2" d="M328.14,215.62c-15.43,0-28-10.15-28-22.62s12.55-22.62,28-22.62,28,10.15,28,22.62S343.56,215.62,328.14,215.62Zm0-43.17c-14.29,0-25.91,9.22-25.91,20.55s11.62,20.55,25.91,20.55,25.91-9.22,25.91-20.55S342.42,172.45,328.14,172.45Z"/><path class="cls-6" d="M314.11,202.34a2.31,2.31,0,1,1-2.31-2.3A2.31,2.31,0,0,1,314.11,202.34Z"/><path class="cls-6" d="M343,202.34a2.31,2.31,0,1,1-2.31-2.3A2.3,2.3,0,0,1,343,202.34Z"/><path class="cls-15" d="M354,172.88c-6.4-7.37-20-11.53-34.33-6.63-18.44,1.27-17.87,12.64-18.46,18.31A18.07,18.07,0,0,0,302.9,200c-3.48-13.29,7.15-18.93,9.16-20.55a33.66,33.66,0,0,0,14.87,5.24L321.45,178c2.07.37,12.19,9.63,18.61,7.86,0,0-4.7-4.83-2.39-4.5,2.88.41,10.82,6.36,10.82,6.36s-1.63-5.8-.27-5c2.26,1.42,6.79,10.24,4.61,18.55,0,0,6.65-6.68.57-18.38,2.74,3.32,4,7.07,3,10.85C356.35,193.81,361.25,181.27,354,172.88Z"/><path class="cls-2" d="M352.83,202.24a.91.91,0,0,1-.88-1.13c1.81-6.92-1.2-14-3.26-16.6a27,27,0,0,0,.67,3,.91.91,0,0,1-.36,1,.9.9,0,0,1-1.06,0c-1.92-1.43-6.93-5-9.54-6a23.88,23.88,0,0,0,2.31,2.74.9.9,0,0,1,.23.87.92.92,0,0,1-.64.64,7.43,7.43,0,0,1-2,.25c-4.23,0-9.23-3.11-12.85-5.51l2.17,2.66a.9.9,0,0,1-.81,1.47,35.42,35.42,0,0,1-14.74-5l-.38.27c-3.26,2.29-10.88,7.64-7.92,18.94a.91.91,0,0,1-1.62.75,18.8,18.8,0,0,1-1.88-16.2c0-.4.07-.81.11-1.25.47-5.77,1.35-16.49,19.06-17.75a39.24,39.24,0,0,1,12.67-2.14c9.17,0,17.59,3.39,22.52,9.06,7.57,8.71,2.77,21.33,2.56,21.86a.94.94,0,0,1-.45.49,13.52,13.52,0,0,1-3.28,7.35A.93.93,0,0,1,352.83,202.24ZM348,181.8a1.34,1.34,0,0,1,.72.22c2.13,1.34,5.7,7.92,5.6,15,1-2.92,1.48-7.54-1.7-13.66a.89.89,0,0,1,.3-1.17.91.91,0,0,1,1.2.17,16,16,0,0,1,2.8,4.8c.43-4.12,0-9.5-3.63-13.71-4.59-5.28-12.49-8.44-21.15-8.44a37.4,37.4,0,0,0-12.19,2.08l-.24,0c-16.27,1.11-17,10.13-17.49,16.09,0,.5-.08,1-.13,1.4a.78.78,0,0,1,0,.21,16.58,16.58,0,0,0-.68,8.68c.63-8.06,6.7-12.32,9.3-14.16.35-.24.64-.44.84-.6a.9.9,0,0,1,1.1,0,32.25,32.25,0,0,0,12.15,4.74l-4-4.9a.9.9,0,0,1,.86-1.46c.75.13,1.8.81,3.89,2.22,3.45,2.31,8.64,5.78,12.7,5.85-2.47-2.82-2.12-3.66-2-4a1.27,1.27,0,0,1,1.24-.75l.33,0c2.18.31,6.61,3.23,9.24,5.08-.51-2.57-.1-3.11.05-3.31A1.12,1.12,0,0,1,348,181.8Z"/><path class="cls-2" d="M331.49,202.6a1.07,1.07,0,0,0-1.16,1c0,.44-1.68,1.11-4.22,1.11s-4.22-.67-4.22-1.11a1.18,1.18,0,0,0-2.33,0c0,.62.32,1.77,2.4,2.5a13.08,13.08,0,0,0,4.15.6c3,0,6.55-.81,6.55-3.1A1.08,1.08,0,0,0,331.49,202.6Z"/><path class="cls-2" d="M339.85,177.2c-3.27-4.36-8-4.59-12.68-6.72-.51-.24-1,.44-.46.75,4.08,2.5,8.72,3.13,12.21,6.66C339.36,178.33,340.26,177.75,339.85,177.2Z"/><path class="cls-2" d="M319.06,193.36a.54.54,0,0,0,.06-.25,1.56,1.56,0,0,0-.51-1.18c-.91-.83-2.76-.65-4.4-.49a9.2,9.2,0,0,1-1.45.08.62.62,0,0,0-.73,0,.61.61,0,0,0-.1.85c.36.45,1,.39,2.4.26l.92-.08a2.84,2.84,0,0,0-.34,1.35,2.14,2.14,0,1,0,4.21,0A2.44,2.44,0,0,0,319.06,193.36Z"/><path class="cls-8" d="M318.17,194.16c0,.5-.26.9-.58.9s-.58-.4-.58-.9.26-.9.58-.9S318.17,193.66,318.17,194.16Z"/><path class="cls-2" d="M335,193.36a.54.54,0,0,1-.06-.25,1.52,1.52,0,0,1,.51-1.18c.9-.83,2.76-.65,4.39-.49a9.37,9.37,0,0,0,1.46.08.6.6,0,0,1,.72,0,.61.61,0,0,1,.11.85c-.36.45-1,.39-2.4.26l-.92-.08a2.84,2.84,0,0,1,.34,1.35,2.14,2.14,0,1,1-4.21,0A2.44,2.44,0,0,1,335,193.36Z"/><path class="cls-8" d="M335.87,194.16c0,.5.26.9.58.9s.57-.4.57-.9-.25-.9-.57-.9S335.87,193.66,335.87,194.16Z"/><path class="cls-16" d="M301.7,322.83s2.4,3,5.56,3.23a2.08,2.08,0,0,0,2.32-1.69l19.48-56.64-20.7-3.57Z"/><path class="cls-2" d="M307.48,327h-.29c-3.51-.25-6.08-3.43-6.19-3.56a.9.9,0,0,1-.19-.67l6.66-58.67a.84.84,0,0,1,.35-.61.9.9,0,0,1,.69-.17l20.7,3.56a.92.92,0,0,1,.62.43.94.94,0,0,1,.08.75L310.45,324.6A2.94,2.94,0,0,1,307.48,327Zm-4.84-4.43a7.86,7.86,0,0,0,4.68,2.63,1.16,1.16,0,0,0,1.37-.95l0-.14,19.13-55.65-18.72-3.22Z"/><path class="cls-7" d="M303.91,323.33a5.57,5.57,0,0,0-5.43,5.73l11-.14A5.58,5.58,0,0,0,303.91,323.33Z"/><path class="cls-2" d="M298.48,330a.89.89,0,0,1-.89-.88,6.48,6.48,0,0,1,6.31-6.63h0a6.52,6.52,0,0,1,6.48,6.46.89.89,0,0,1-.88.9l-11,.14Zm5.5-5.74a4.69,4.69,0,0,0-4.55,4l9.08-.12A4.69,4.69,0,0,0,304,324.21Z"/><path class="cls-16" d="M353.37,322.83s-2.4,3-5.55,3.23a2.07,2.07,0,0,1-2.32-1.69L326,267.73l20.69-3.57Z"/><path class="cls-2" d="M347.59,327a3,3,0,0,1-3-2.37L325.17,268a.9.9,0,0,1,.07-.75.92.92,0,0,1,.62-.43l20.7-3.56a.92.92,0,0,1,1.05.78l6.65,58.67a.9.9,0,0,1-.19.67c-.1.13-2.68,3.31-6.19,3.56Zm-20.38-58.54,19.13,55.65a.83.83,0,0,1,0,.15,1.19,1.19,0,0,0,1.37.94,7.83,7.83,0,0,0,4.68-2.63l-6.5-57.33Z"/><path class="cls-7" d="M351.17,323.33a5.58,5.58,0,0,1,5.43,5.73l-11-.14A5.59,5.59,0,0,1,351.17,323.33Z"/><path class="cls-2" d="M356.6,330h0l-11-.14a.88.88,0,0,1-.87-.9,6.49,6.49,0,0,1,6.39-6.46,6.3,6.3,0,0,1,4.59,2,6.53,6.53,0,0,1,1.8,4.64A.88.88,0,0,1,356.6,330Zm-10-1.91,9.08.12a4.65,4.65,0,0,0-1.25-2.51,4.53,4.53,0,0,0-3.24-1.44h0A4.71,4.71,0,0,0,346.56,328Z"/><path class="cls-5" d="M306.29,161a2.47,2.47,0,0,0,2.31-2.18c.25-1.81-1.14-1.36-1.87-1.19,0,0,2.51-6.58.19-7.65s-6.61,9.58-5.35,10.06A20.84,20.84,0,0,0,306.29,161Z"/><path class="cls-2" d="M306.11,162a24.93,24.93,0,0,1-4.91-1c-1.18-.45-.89-2-.79-2.55.41-2.24,3.13-9.59,6.15-9.59a1.82,1.82,0,0,1,.79.18c2.31,1.05,1.64,4.83.86,7.41a1.75,1.75,0,0,1,1,.56,2.33,2.33,0,0,1,.42,1.94,3.42,3.42,0,0,1-3,3A1.88,1.88,0,0,1,306.11,162Zm-3.73-2.84a23.65,23.65,0,0,0,3.73.77v1l0-1c.82-.19,1.32-.37,1.44-1.31a1.11,1.11,0,0,0,0-.17,3.71,3.71,0,0,0-.48.1l-.15,0a1.07,1.07,0,0,1-.92-.24,1,1,0,0,1-.34-.9,1.68,1.68,0,0,1,.06-.24c1.24-3.35,1.38-6,.74-6.33a4.1,4.1,0,0,0-1.16,1.22A20,20,0,0,0,302.38,159.2Z"/><path class="cls-5" d="M358.28,161.13a2.49,2.49,0,0,1-1.66-2.72c.23-1.81,1.46-1,2.12-.65,0,0-.69-7,1.82-7.43s3.86,11,2.53,11.11A20.83,20.83,0,0,1,358.28,161.13Z"/><path class="cls-2" d="M362.28,162.5c-.61,0-3.68,0-4.49-.46a3.48,3.48,0,0,1-2.19-3.76c.23-1.84,1.39-2,1.88-2h.14c-.08-2.69.27-6.51,2.77-6.93a1.72,1.72,0,0,1,.32,0c3.44,0,3.92,9,3.93,9.1.09,1.93,0,3.93-1.45,4.08C363,162.49,362.68,162.5,362.28,162.5Zm-4.6-4.13s0,.1,0,.17c-.12.94.31,1.25,1,1.64a19.46,19.46,0,0,0,3.59.25h.24a19.87,19.87,0,0,0-1-7.6c-.48-1.29-.87-1.48-.87-1.49-.63.13-1.19,2.85-.88,6.31a.89.89,0,0,1,0,.23,1.05,1.05,0,0,1-.55.8,1,1,0,0,1-1,0l-.13-.07Z"/><path class="cls-17" d="M307.1,230.31c3.62-2.67,5.88-9.95,5.88-9.95-3.48-3.26-11.34-18-11.32-33.72,0-16.32,5.34-25.08,5.34-25.08l-6.32-1.74s-8.23,11.2-8,28.84C292.89,209.27,307.1,230.31,307.1,230.31Z"/><path class="cls-2" d="M307.1,231.35l-.18,0a1,1,0,0,1-.68-.44c-.59-.87-14.38-21.54-14.62-42.22-.2-17.78,7.89-29,8.23-29.46a1,1,0,0,1,1.11-.38l6.32,1.73a1,1,0,0,1,.68.62,1.06,1.06,0,0,1-.07.92c-.05.08-5.18,8.75-5.19,24.54s8,30.13,11,33a1,1,0,0,1,.28,1.06c-.09.31-2.41,7.64-6.26,10.48A1.06,1.06,0,0,1,307.1,231.35Zm-6-70.33a51.43,51.43,0,0,0-7.44,27.63c.2,17.58,10.89,35.73,13.63,40.1,2.3-2.32,3.94-6.57,4.48-8.11-4.16-4.49-11.19-19.13-11.17-34,0-13.19,3.41-21.48,4.85-24.42Z"/><path class="cls-17" d="M347.87,230a90.3,90.3,0,0,1-5.88-8.88c.51-5.73,10.41-18.83,14.52-34,4.26-15.76,1.43-25.61,1.43-25.61l6.55,0s5,13,.19,29.94C359,211.23,347.87,230,347.87,230Z"/><path class="cls-2" d="M347.87,231a1,1,0,0,1-.81-.4,89.25,89.25,0,0,1-6-9A1,1,0,0,1,341,221c.24-2.76,2.37-6.84,5.06-12,3.23-6.19,7.25-13.9,9.49-22.2,4.13-15.25,1.46-25,1.43-25.05a1.05,1.05,0,0,1,.17-.91,1,1,0,0,1,.82-.41l6.56,0h0a1,1,0,0,1,1,.66c.21.54,5.08,13.48.22,30.59-5.61,19.72-16.8,38.65-16.91,38.84a1,1,0,0,1-.82.5Zm-4.82-10.14c.6,1,2.64,4.42,4.7,7.24,2.62-4.63,11.25-20.56,15.93-37a51.29,51.29,0,0,0,.07-28.61h-4.52c.63,3.22,1.73,12.11-1.72,24.85-2.31,8.52-6.38,16.34-9.66,22.62C345.47,214.54,343.41,218.5,343.05,220.9Z"/><path class="cls-17" d="M319.27,217.12c2.8.19,0,6.36,9.26,6.36,8.92,0,8.92-6.36,8.92-6.36,16.78-1.15,10.4,55.09,10.4,55.09l-40,.13S302.69,216,319.27,217.12Z"/><path class="cls-2" d="M307.86,273.37a1,1,0,0,1-1-.94c-.16-1.74-3.8-42.78,6.1-53.62a7.65,7.65,0,0,1,6.41-2.73c1.66.12,2.15,1.48,2.55,2.58.64,1.78,1.36,3.79,6.64,3.79,7.72,0,7.88-5.12,7.88-5.34a1.05,1.05,0,0,1,1-1,7.65,7.65,0,0,1,6.47,2.78c9.73,10.89,5.22,51.73,5,53.47a1,1,0,0,1-1,.91l-40,.13Zm10.92-55.24a5.69,5.69,0,0,0-4.33,2.07c-8.49,9.31-6.13,44.84-5.64,51.1l38.11-.12c.61-6.17,3.75-41.59-4.61-51a5.69,5.69,0,0,0-4-2.08c-.43,2-2.24,6.37-9.81,6.37-6.73,0-7.89-3.23-8.59-5.16-.38-1.05-.49-1.19-.74-1.21Z"/><path class="cls-18" d="M343.36,80.78Q353,87,355.07,96.8t-5.78,16.07l.17.79a20.07,20.07,0,0,1,3.83,1.71,23.73,23.73,0,0,1,4.31,2.91,17.41,17.41,0,0,1,6,10A25.69,25.69,0,0,1,358.76,150q-7.33,9.71-20.94,12.57t-24.14-3.14a28.72,28.72,0,0,1-7.64-6.72,20,20,0,0,1-1.86-2.66l-.46-1.08a20.73,20.73,0,0,1-2.51-5.81q-1.38-6.52,9.64-8.84c3-.63,5.06-.67,6.2-.13,1.47.71,3,2.42,4.6,5.13,1.25,2.25,3.69,3.61,7.32,4.1a16,16,0,0,0,4.86-.32q6-1.26,8.26-4.27a7.23,7.23,0,0,0,1.66-6,7,7,0,0,0-3.88-4.76,10,10,0,0,0-7-.93,38,38,0,0,1-5.16.85,9.1,9.1,0,0,1-3.16-.51c-2.23-.54-3.85-3.22-4.86-8q-1.67-7.87,2.19-10.21a23,23,0,0,1,5.73-1.79c5.69-1.2,8.24-3.26,7.62-6.19a6.36,6.36,0,0,0-3.2-4,8.86,8.86,0,0,0-6.68-.82,12.93,12.93,0,0,0-6.07,2.69,6.6,6.6,0,0,0-2.36,3.31l-.39,1.49q-1.39,6.17-6.23,7.18a12.39,12.39,0,0,1-6.61-.72q-6.31-2.07-7.21-6.34c-.25-1.2.07-3.93,1-8.19a20.77,20.77,0,0,1,1.72-4.07,24.48,24.48,0,0,1,3.74-5.42,28.29,28.29,0,0,1,6.68-5,34.73,34.73,0,0,1,10.29-3.81Q333.72,74.59,343.36,80.78Z"/><rect class="cls-5" x="423.01" y="210.87" width="16.94" height="12.48"/><path class="cls-2" d="M440,224.33H423a1,1,0,0,1-1-1V210.87a1,1,0,0,1,1-1H440a1,1,0,0,1,1,1v12.49A1,1,0,0,1,440,224.33Zm-16-2h15V211.85H424Z"/><path class="cls-5" d="M458.73,189.55c0,11.92-12.07,21.59-27,21.59s-26.95-9.67-26.95-21.59S416.9,168,431.78,168,458.73,177.63,458.73,189.55Z"/><path class="cls-2" d="M431.78,212.17c-15.43,0-28-10.15-28-22.62s12.55-22.62,28-22.62,28,10.15,28,22.62S447.21,212.17,431.78,212.17Zm0-43.17c-14.29,0-25.91,9.22-25.91,20.55s11.62,20.55,25.91,20.55,25.91-9.22,25.91-20.55S446.07,169,431.78,169Z"/><path class="cls-6" d="M417.75,198.89a2.31,2.31,0,1,1-2.3-2.3A2.3,2.3,0,0,1,417.75,198.89Z"/><path class="cls-6" d="M446.63,198.89a2.3,2.3,0,1,1-2.3-2.3A2.3,2.3,0,0,1,446.63,198.89Z"/><path class="cls-10" d="M405.8,187.5s33.71-6.21,38.53-11.81l13.78,11s0-8.1-4.51-13c-8.17-8.81-25.9-12.54-38.63-3C403.24,179.55,405.8,187.5,405.8,187.5Z"/><path class="cls-2" d="M405.8,188.54a1.05,1.05,0,0,1-1-.72c-.11-.35-2.64-8.76,9.54-17.92a29.48,29.48,0,0,1,17.91-5.85c8.52,0,17,3.42,22.1,8.93,4.76,5.12,4.78,13.35,4.78,13.7a1,1,0,0,1-1.68.8l-13.07-10.42c-6.65,5.48-35.06,10.85-38.4,11.46Zm26.46-22.42a27.5,27.5,0,0,0-16.67,5.43c-8.76,6.6-9.17,12.56-9,14.75,10-1.89,33.28-7.07,36.91-11.29a1,1,0,0,1,1.43-.13l11.93,9.51c-.33-2.64-1.28-7-4-10C448.12,169.28,440.23,166.12,432.26,166.12Z"/><path class="cls-11" d="M438.19,167.28c1.26.18,2.47-1.08,2.69-2.8h0c.22-1.72-.62-3.26-1.88-3.44l-8.68-1.22c-1.26-.18-2.46,1.07-2.68,2.79h0c-.23,1.72.61,3.26,1.88,3.44Z"/><path class="cls-2" d="M438.43,168.3h0l-.38,0-8.67-1.23c-1.84-.26-3-2.27-2.74-4.57s2-3.93,3.83-3.66l8.67,1.22c1.84.26,3,2.27,2.74,4.57C441.61,166.72,440.13,168.3,438.43,168.3Zm-8.35-7.49c-.57,0-1.29.74-1.44,1.93s.41,2.22,1,2.31l8.77,1.23c.58,0,1.3-.77,1.45-1.93s-.41-2.22-1-2.31Z"/><path class="cls-2" d="M423.76,191.6a.93.93,0,0,1-.86-1c0-.45-1.24-1.12-3.11-1.12s-3.11.67-3.11,1.12a.86.86,0,1,1-1.71,0,2.71,2.71,0,0,1,1.76-2.5,7.35,7.35,0,0,1,3.06-.61c2.23,0,4.83.82,4.83,3.11A.93.93,0,0,1,423.76,191.6Z"/><path class="cls-2" d="M446,191.6a.93.93,0,0,1-.86-1c0-.45-1.23-1.12-3.1-1.12s-3.11.67-3.11,1.12a.86.86,0,1,1-1.71,0,2.7,2.7,0,0,1,1.76-2.5,7.32,7.32,0,0,1,3.06-.61c2.22,0,4.82.82,4.82,3.11A.93.93,0,0,1,446,191.6Z"/><path class="cls-2" d="M436.59,199.15a1.08,1.08,0,0,0-1.16,1c0,.45-1.68,1.12-4.22,1.12s-4.22-.67-4.22-1.12a1.17,1.17,0,0,0-2.32,0c0,.63.31,1.78,2.4,2.51a13.26,13.26,0,0,0,4.14.6c3,0,6.55-.82,6.55-3.11A1.08,1.08,0,0,0,436.59,199.15Z"/><path class="cls-10" d="M430.32,159.82s-3.29-11,7.83-13.7c19-4.53,27.94,18.16,27.94,18.16S453.43,141.85,439,161C437.65,162.84,430.32,159.82,430.32,159.82Z"/><path class="cls-2" d="M466.09,165.31a1,1,0,0,1-.9-.52c-.06-.1-6-10.48-14-10.48-3.88,0-7.7,2.48-11.37,7.35a3,3,0,0,1-2.54,1c-2.79,0-7.17-1.8-7.36-1.88a1,1,0,0,1-.6-.66c-.06-.22-1.57-5.4,1-9.8,1.5-2.6,4.06-4.35,7.61-5.19,8.67-2.07,16.84,1.14,23.32,9.13a40.53,40.53,0,0,1,5.82,9.65,1,1,0,0,1-1,1.41Zm-34.89-6.26a21.49,21.49,0,0,0,6.09,1.53,1.53,1.53,0,0,0,.89-.16c4.07-5.42,8.46-8.17,13-8.17a13.89,13.89,0,0,1,7.94,2.75c-3.66-4.31-9-8.44-16.07-8.44a20.09,20.09,0,0,0-4.68.57c-3,.71-5.09,2.12-6.29,4.2C430.4,154.26,430.93,157.79,431.2,159.05Z"/><path class="cls-19" d="M404.21,322.84s2.4,3,5.56,3.22a2.08,2.08,0,0,0,2.32-1.69l19.48-56.64-20.7-3.57Z"/><path class="cls-2" d="M410,327h-.29c-3.51-.25-6.08-3.43-6.19-3.56a.89.89,0,0,1-.19-.66L410,264.06a.84.84,0,0,1,.35-.61.9.9,0,0,1,.69-.17l20.7,3.56a.92.92,0,0,1,.62.43.94.94,0,0,1,.08.75L413,324.6A2.94,2.94,0,0,1,410,327Zm-4.84-4.43a7.89,7.89,0,0,0,4.68,2.63H410a1.14,1.14,0,0,0,1.21-.95l0-.14,19.13-55.65-18.72-3.22Z"/><path class="cls-4" d="M406.42,323.33a5.57,5.57,0,0,0-5.43,5.73l11-.14A5.58,5.58,0,0,0,406.42,323.33Z"/><path class="cls-2" d="M401,330.09a1,1,0,0,1-1-1,6.63,6.63,0,0,1,6.45-6.78h0A6.66,6.66,0,0,1,413,328.9a1,1,0,0,1-1,1.05l-11,.14Zm5.5-5.73a4.54,4.54,0,0,0-4.37,3.65l8.72-.11A4.53,4.53,0,0,0,406.49,324.36Z"/><path class="cls-19" d="M455.88,322.84s-2.4,3-5.55,3.22a2.09,2.09,0,0,1-2.33-1.69l-19.47-56.64,20.69-3.57Z"/><path class="cls-2" d="M450.1,327a3,3,0,0,1-3-2.37L427.68,268a.9.9,0,0,1,.07-.75.92.92,0,0,1,.62-.43l20.7-3.56a.92.92,0,0,1,1.05.78l6.65,58.68a.89.89,0,0,1-.19.66c-.1.13-2.68,3.31-6.19,3.56Zm-20.38-58.54,19.13,55.65a.83.83,0,0,1,0,.15,1.19,1.19,0,0,0,1.37.94,7.83,7.83,0,0,0,4.68-2.63l-6.5-57.33Z"/><path class="cls-4" d="M453.67,323.33a5.58,5.58,0,0,1,5.44,5.73l-11-.14A5.58,5.58,0,0,1,453.67,323.33Z"/><path class="cls-2" d="M459.11,330.09h0l-11-.14a1,1,0,0,1-1-1.05,6.65,6.65,0,0,1,6.54-6.61,6.53,6.53,0,0,1,4.7,2,6.72,6.72,0,0,1,1.84,4.75A1,1,0,0,1,459.11,330.09Zm-9.86-2.19L458,328a4.66,4.66,0,0,0-1.18-2.26,4.41,4.41,0,0,0-3.14-1.39h0A4.56,4.56,0,0,0,449.25,327.9Z"/><path class="cls-5" d="M472.79,257.85a2,2,0,0,0-1.52,2.1c.07,1.49,1.12.92,1.68.67,0,0-1,5.66,1,6.16s3.84-8.69,2.76-8.88A16.23,16.23,0,0,0,472.79,257.85Z"/><path class="cls-2" d="M474.13,267.84h0a2,2,0,0,1-.42,0c-2.1-.53-2.21-3.6-2-5.83-.71-.1-1.42-.65-1.48-2a3,3,0,0,1,2.07-3.07,4,4,0,0,1,1.7-.22,23.2,23.2,0,0,1,2.89.17c1.39.25,1.22,2.21,1.14,3C478,260,477.2,267.84,474.13,267.84ZM473,259.58a1.08,1.08,0,0,1,.64.22,1,1,0,0,1,.38,1c-.44,2.49-.22,4.54.15,4.92.77-.7,2.09-5.11,1.92-6.86-.52,0-1.32-.08-2-.08a5.84,5.84,0,0,0-.89,0c-.58.26-.82.42-.82,1l.12-.06.11-.05A1.06,1.06,0,0,1,473,259.58Z"/><path class="cls-20" d="M441.27,217.25l7.87,9.5c1.27.93,1.23-.58,10.23,15.1,6.63,11.57,10.52,16.08,10.52,16.08h7.57A167.67,167.67,0,0,0,465,236.07C451.93,216.47,441.27,217.25,441.27,217.25Z"/><path class="cls-2" d="M477.46,259h-7.57a1,1,0,0,1-.78-.36c-.16-.18-4-4.71-10.64-16.23-7.75-13.52-8.67-14-9.41-14.45a4.07,4.07,0,0,1-.53-.33,1.07,1.07,0,0,1-.19-.18l-7.87-9.5a1,1,0,0,1,.72-1.7h.25c1.93,0,12.17.93,24.44,19.29a171.46,171.46,0,0,1,12.53,22,1.05,1.05,0,0,1-.08,1A1,1,0,0,1,477.46,259Zm-7.08-2.07h5.45a175.89,175.89,0,0,0-11.66-20.24c-9-13.39-16.66-17-20.41-18l6.08,7.34a2,2,0,0,0,.23.14c1.21.68,2.16,1.21,10.19,15.22A126.45,126.45,0,0,0,470.38,256.89Z"/><path class="cls-20" d="M421.78,217.12c2.8.19,0,6.36,9.26,6.36,8.92,0,8.92-6.36,8.92-6.36,16.78-1.15,10.4,55.09,10.4,55.09l-40,.13S405.2,216,421.78,217.12Z"/><path class="cls-2" d="M410.37,273.37a1,1,0,0,1-1-.94c-.16-1.74-3.8-42.78,6.1-53.62a7.65,7.65,0,0,1,6.41-2.73c1.66.12,2.15,1.48,2.55,2.58.64,1.78,1.36,3.79,6.64,3.79,7.72,0,7.88-5.12,7.88-5.34a1.05,1.05,0,0,1,1-1,7.63,7.63,0,0,1,6.47,2.78c9.73,10.89,5.22,51.73,5,53.47a1,1,0,0,1-1,.91l-40,.13Zm10.92-55.24A5.69,5.69,0,0,0,417,220.2c-8.49,9.31-6.13,44.84-5.64,51.1l38.11-.12c.61-6.17,3.75-41.59-4.61-51a5.69,5.69,0,0,0-4-2.08c-.43,2-2.24,6.37-9.81,6.37-6.73,0-7.89-3.23-8.59-5.16-.38-1.05-.49-1.19-.74-1.21Z"/><path class="cls-5" d="M411.46,269.61a2,2,0,0,1,2.42.93c.75,1.29-.44,1.38-1.05,1.48,0,0,3.94,4.19,2.53,5.72s-8-5.18-7.17-5.93A16.45,16.45,0,0,1,411.46,269.61Z"/><path class="cls-2" d="M414.76,279c-2.53,0-6.86-4.64-7.52-6.31a1.4,1.4,0,0,1,.24-1.65c.15-.13,2.85-2.3,3.81-2.46a5.08,5.08,0,0,1,.92-.1,2.86,2.86,0,0,1,2.56,1.53A2,2,0,0,1,415,272a1.57,1.57,0,0,1-.41.53c1.41,1.75,3,4.38,1.53,6A1.79,1.79,0,0,1,414.76,279Zm-5.47-6.78c.78,1.34,4.06,4.52,5.36,4.7.09-.52-.85-2.35-2.57-4.2a1,1,0,0,1,.59-1.73l.12,0,.13,0a.75.75,0,0,0-.71-.4,3.41,3.41,0,0,0-.51.06A17.74,17.74,0,0,0,409.29,272.23Z"/><path class="cls-20" d="M415.67,218.39c3.56.89-6.75,11-5.71,29,.76,13.31,1.86,21.53,1.86,21.53l-4.24,3.28A60.85,60.85,0,0,1,402.39,247C402.65,223.45,415.67,218.39,415.67,218.39Z"/><path class="cls-2" d="M407.58,273.27l-.23,0a1.07,1.07,0,0,1-.69-.55,61.19,61.19,0,0,1-5.3-25.69c.26-24,13.37-29.37,13.93-29.59a1.13,1.13,0,0,1,.63,0,2,2,0,0,1,1.32,1c.6,1.22-.11,2.85-1.4,5.82-2,4.7-5.46,12.57-4.85,23.15.75,13.12,1.84,21.37,1.85,21.45a1,1,0,0,1-.39,1l-4.23,3.27A1,1,0,0,1,407.58,273.27Zm7.78-53.58c-2.59,1.45-11.72,7.94-11.93,27.35A61.41,61.41,0,0,0,408,270.61l2.73-2.11c-.26-2.12-1.15-9.81-1.8-21s2.91-19.23,5-24.1A23.76,23.76,0,0,0,415.36,219.69Z"/><path class="cls-21" d="M484.68,259.81a4.19,4.19,0,0,1,2.64-1.92,18.69,18.69,0,0,1,4.95-.59,15.58,15.58,0,0,1,4.91.57,4.53,4.53,0,0,1,2.64,2,7.17,7.17,0,0,1,.95,2.56,29.16,29.16,0,0,1,.19,3.4l.62,54a12.81,12.81,0,0,1-.86,5.59,4.56,4.56,0,0,1-2.79,2.41,16.61,16.61,0,0,1-4.7.64,16.43,16.43,0,0,1-4.47-.44,7.77,7.77,0,0,1-2.54-1.13,3.73,3.73,0,0,1-1.28-1.93,16.11,16.11,0,0,1-.64-5l-.14-11.84-26.3.3q-6.8.08-8.1-3.6a14.25,14.25,0,0,1-.54-4.17,19.05,19.05,0,0,1,.25-3.88l7.69-32.61c.37-1.5.69-2.63,1-3.41a5.56,5.56,0,0,1,1.73-2.26,5.08,5.08,0,0,1,3.33-1.1,16.35,16.35,0,0,1,4.48.63q6.81,1.75,6.86,6.13a16.78,16.78,0,0,1-.63,4.09.76.76,0,0,0-.09.29l-5.65,23.75,15.82-.18-.31-26.5a28,28,0,0,1,.11-3.3A6.94,6.94,0,0,1,484.68,259.81Z"/><path class="cls-22" d="M518.16,161.79l9.29.06h5.74a18,18,0,0,1,2.14.09,5,5,0,0,1,1.59.58q1.65.85,1.65,4.89c0,2.44-.51,3.93-1.53,4.46a4.27,4.27,0,0,1-1.5.58,15.62,15.62,0,0,1-2,.09H522.87c-.08.49-.29,2-.61,4.64a13.53,13.53,0,0,1,2.14-.12,14.87,14.87,0,0,1,10.44,4.37,14.11,14.11,0,0,1,4.65,10.69,15.13,15.13,0,0,1-4.4,10.88,14.62,14.62,0,0,1-10.94,4.55,18.94,18.94,0,0,1-10.26-2.87,10.05,10.05,0,0,1-1.53-1.16l-.49-.43c-1.55-1.35-2.32-2.57-2.32-3.67s.75-2.42,2.26-4a5,5,0,0,1,3.54-2,7,7,0,0,1,4.1,1.95c.73.86,2,1.28,3.82,1.28a5.93,5.93,0,0,0,4-1.16,4.07,4.07,0,0,0,1.31-3.21,4,4,0,0,0-1.44-3.23,4.91,4.91,0,0,0-3.26-1.19A4,4,0,0,0,521,189a5.15,5.15,0,0,1-3.33,1.4,8.36,8.36,0,0,1-3.84-1.16,12.14,12.14,0,0,1-2.84-1.86,2.15,2.15,0,0,1-.68-1.5q0-.8,1.22-9.84c.82-6,1.25-9.16,1.29-9.4a6.87,6.87,0,0,1,.43-1.29,7.62,7.62,0,0,1,.88-1.65,4.77,4.77,0,0,1,1.59-1.31A5.06,5.06,0,0,1,518.16,161.79Z"/><path class="cls-21" d="M430.07,87a9.7,9.7,0,0,1,2.06,7.75,10.77,10.77,0,0,1-4.19,7.06q-4.45,3.49-9,2.4a14.67,14.67,0,0,1-8.06-5.61,20.77,20.77,0,0,1-4.86-13.86q.29-7.32,6.73-12.37a5.4,5.4,0,0,1,2.16-1.17,2.09,2.09,0,0,1,1.57.35A6.9,6.9,0,0,1,418,73a7.61,7.61,0,0,1,1.06,1.71,3.47,3.47,0,0,1,.29,1.22,1.66,1.66,0,0,1-.34,1,8.47,8.47,0,0,1-1.82,1.77,9.94,9.94,0,0,0-2.35,2.62,8.19,8.19,0,0,0-1,6.78l.21.62a7.72,7.72,0,0,1,2.08-2.58,10.51,10.51,0,0,1,7.58-2.31A8.61,8.61,0,0,1,430.07,87Zm-6.68,9.29q2.64-2.07.84-4.37a2.81,2.81,0,0,0-1.76-1,3.12,3.12,0,0,0-2.46.82,3.73,3.73,0,0,0-1.52,2.23,2.23,2.23,0,0,0,.3,1.83,5.44,5.44,0,0,0,.87.93,3.58,3.58,0,0,0,.92.5C421.31,97.48,422.25,97.16,423.39,96.27Z"/><path class="cls-23" d="M351.4,18.23c1.85,0,2.94.51,3.25,1.51a7.11,7.11,0,0,1,.24,2.22,10.25,10.25,0,0,1-1,3.95,36.27,36.27,0,0,1-2.48,4.67q-1.45,2.3-2.92,4.64Q345,40.91,345,44.35a7.73,7.73,0,0,1-.08,1.29,2.35,2.35,0,0,1-.4.88,1.62,1.62,0,0,1-1.05.61,12.64,12.64,0,0,1-4,0,1.59,1.59,0,0,1-1.05-.63,2.27,2.27,0,0,1-.38-.9,10.31,10.31,0,0,1-.06-1.33,17.1,17.1,0,0,1,.88-5.3,25.22,25.22,0,0,1,2.1-4.86c.82-1.43,1.64-2.74,2.46-3.95l2.1-3.09a4.19,4.19,0,0,0,.88-1.81h-9.05a5,5,0,0,1-2.31-.4,2,2,0,0,1-.95-1.15,6.67,6.67,0,0,1-.24-2,6.79,6.79,0,0,1,.24-2,1.67,1.67,0,0,1,.76-1,4.61,4.61,0,0,1,2.3-.48Z"/><path class="cls-24" d="M233.25,41.81a12,12,0,0,1-8.92,5.76,15.2,15.2,0,0,1-16.63-10.7,12,12,0,0,1,1.59-10.52,9.35,9.35,0,0,1,3.29-3.07,11.13,11.13,0,0,1,3.49-1.42l1.5-.24c-.09-.32-.19-.72-.3-1.22a9.84,9.84,0,0,1,.07-2.72,8.35,8.35,0,0,1,1.27-3.61,11,11,0,0,1,8-5.15,13.68,13.68,0,0,1,9.6,2.11A13.22,13.22,0,0,1,242,18.9a11.49,11.49,0,0,1-1.58,9.57A7.53,7.53,0,0,1,238,30.79a9.13,9.13,0,0,1-2.69,1.26l-1.14.29a15.88,15.88,0,0,1,.42,1.58,14.55,14.55,0,0,1,0,3.5A9.11,9.11,0,0,1,233.25,41.81Zm-16.58-7.13a4.69,4.69,0,0,0,2.32,3,4.59,4.59,0,0,0,3.67.84,4,4,0,0,0,2.48-1.68,4,4,0,0,0,.49-3,4.6,4.6,0,0,0-2.28-3,4.74,4.74,0,0,0-3.68-.88,3.92,3.92,0,0,0-2.53,1.65A4,4,0,0,0,216.67,34.68Zm16-11.62a2.82,2.82,0,0,0,.32-2.19,3.62,3.62,0,0,0-1.76-2.25,3.5,3.5,0,0,0-2.73-.67,2.83,2.83,0,0,0-1.8,1.22,2.9,2.9,0,0,0-.33,2.24,3.56,3.56,0,0,0,1.72,2.27,3.43,3.43,0,0,0,2.73.61A3,3,0,0,0,232.65,23.06Z"/><path class="cls-25" d="M111.08,60.93a10.94,10.94,0,0,1-.07-9,12,12,0,0,1,6.52-6.46q5.86-2.55,10.45-.1a16.46,16.46,0,0,1,7.16,8.37q3.74,8.57,1.39,16.4T125.8,81.65l-.26.12a5.3,5.3,0,0,1-2.62.6c-1.06-.14-2-1.14-2.79-3q-1.36-3.13.1-4.42a9.8,9.8,0,0,1,2.48-1.4A11.47,11.47,0,0,0,126,71.39a8.31,8.31,0,0,0,2-2.69,10.26,10.26,0,0,0,1-4.39l-.05-.72a8.84,8.84,0,0,1-3,2.22,11.58,11.58,0,0,1-8.82.35A9.65,9.65,0,0,1,111.08,60.93Zm9.82-8.17q-3.45,1.52-2.14,4.51a3.13,3.13,0,0,0,1.62,1.58,3.53,3.53,0,0,0,2.93-.2,4.21,4.21,0,0,0,2.3-2,2.53,2.53,0,0,0,.2-2.06,6.48,6.48,0,0,0-.68-1.25,3.32,3.32,0,0,0-.91-.8C123.47,52.05,122.37,52.13,120.9,52.76Z"/><path class="cls-26" d="M17.05,131.46a3.12,3.12,0,0,1,2.46-.21,7.56,7.56,0,0,1,1.71.83,3.59,3.59,0,0,1,.81.79,1.69,1.69,0,0,1,.23,1,8.25,8.25,0,0,1-.53,2l-7.57,20.78a13.57,13.57,0,0,1-.52,1.27,3.29,3.29,0,0,1-.72.85c-.59.55-1.68.53-3.27-.05s-2.38-1.23-2.52-2a3,3,0,0,1,0-1.16,11.78,11.78,0,0,1,.44-1.38l4.85-13.32-.65.28a5.07,5.07,0,0,1-3,.2A3.42,3.42,0,0,1,7,139.23a4,4,0,0,1-.33-2.74,3.45,3.45,0,0,1,2.14-1.71l8.13-3.29Z"/><path class="cls-26" d="M27.06,137.61a9.13,9.13,0,0,1,4-1.43,10.31,10.31,0,0,1,4.91.63,10.09,10.09,0,0,1,4.13,2.64,9.31,9.31,0,0,1,2.11,3.6,13.14,13.14,0,0,1,.49,4.15,24,24,0,0,1-1.47,7.53q-2.46,6.75-6.81,9.65a8.68,8.68,0,0,1-3.9,1.37,10.35,10.35,0,0,1-4.81-.66,10.4,10.4,0,0,1-4.13-2.62,9.06,9.06,0,0,1-2.17-3.56,13.34,13.34,0,0,1-.55-4.12,24.12,24.12,0,0,1,1.57-7.67,21.44,21.44,0,0,1,3.2-6.06A16.7,16.7,0,0,1,27.06,137.61Zm1,20.82c2.57.93,4.73-1,6.51-5.91l.08-.23q2.73-7.5-1.07-8.88T27,149.54Q24.25,157.06,28,158.43Z"/></svg>