<svg id="Layer_1" data-name="Layer 1" xmlns="http://www.w3.org/2000/svg" viewBox="0 0 176 174"><defs><style>.cls-1{fill:#a0cd62;}</style></defs><path class="cls-1" d="M14.32,12.68v72h72v-72ZM74.5,53.8H54.66V73.64H45.32V53.8H25.48V44.46H45.32V24.62h9.34V44.46H74.5Z"/><path class="cls-1" d="M92.32,12.68v72h72v-72ZM152.5,53.34h-49V44h49Z"/><path class="cls-1" d="M14.32,89.68v72h72v-72ZM73,142.28l-6.6,6.61L50.25,132.74,34.09,148.89l-6.6-6.61,16.15-16.15L27.49,110l6.6-6.61,16.16,16.16L66.4,103.37,73,110,56.85,126.13Z"/><path class="cls-1" d="M92.32,89.68v72h72v-72Zm35.92,13a4.67,4.67,0,1,1-4.67,4.67A4.67,4.67,0,0,1,128.24,102.73Zm0,46.7a4.67,4.67,0,1,1,4.67-4.67A4.67,4.67,0,0,1,128.24,149.43Zm24.51-18.68h-49v-9.34h49Z"/></svg>