<svg id="Layer_1" data-name="Layer 1" xmlns="http://www.w3.org/2000/svg" viewBox="0 0 640 159"><defs><style>.cls-1{font-size:76.57px;fill:#303e5c;font-family:RobotoSlab-Bold, Roboto Slab;font-weight:700;}.cls-2{letter-spacing:-0.04em;}.cls-3{fill:#9fcd60;}</style></defs><text class="cls-1" transform="translate(176.27 108.94)">M<tspan class="cls-2" x="72.12" y="0">a</tspan><tspan x="111.19" y="0">thChamp</tspan></text><path class="cls-3" d="M25,25V79.72H79.72V25ZM70.73,56.25H55.66V71.33h-7.1V56.25H33.48V49.16H48.56V34.08h7.1V49.16H70.73Z"/><path class="cls-3" d="M84.28,25V79.72H139V25ZM130,55.91H92.76v-7.1H130Z"/><path class="cls-3" d="M25,83.52v54.72H79.72V83.52Zm44.6,40-5,5L52.3,116.24,40,128.52l-5-5,12.28-12.27L35,99l5-5L52.3,106.21,64.58,93.93l5,5L57.32,111.23Z"/><path class="cls-3" d="M84.28,83.52v54.72H139V83.52Zm27.3,9.92A3.55,3.55,0,1,1,108,97,3.55,3.55,0,0,1,111.58,93.44Zm0,35.49a3.55,3.55,0,1,1,3.55-3.55A3.55,3.55,0,0,1,111.58,128.93Zm18.62-14.19H93v-7.1H130.2Z"/></svg>